<svg xmlns="http://www.w3.org/2000/svg" width="338.006" height="281.939" viewBox="0 0 338.006 281.939"><g transform="translate(0)"><path d="M675.71,117.694c0,11.735-2.779,21.394-7.6,29.669a59.271,59.271,0,0,1-5.4,7.758c-17.724,21.678-50.676,33.543-80.458,52.761-87.912,56.729-97.435-34.173-93.464-90.188a99.944,99.944,0,0,1,24.387-59.158,92.834,92.834,0,0,1,9.492-9.332,90.922,90.922,0,0,1,59.585-21.7c39.8,0,73.792,24.007,87.268,57.836A87.37,87.37,0,0,1,675.71,117.694Z" transform="translate(-356.4 -27.503)" fill="#fff7d8"/><path d="M652.334,88.423,563.344,99.13a92.842,92.842,0,0,1,9.492-9.332Z" transform="translate(-406.572 -68.096)" fill="#fef7d8"/><path d="M864.684,383.914a59.279,59.279,0,0,1-5.4,7.758L783.054,382.5Z" transform="translate(-552.974 -264.054)" fill="#fef7d8"/><path d="M783.243,195.259,654.054,178.5l126.079,7.454A86.857,86.857,0,0,1,783.243,195.259Z" transform="translate(-467.016 -128.12)" fill="#fef7d8"/><path d="M1066.552,115.325c.161.165.315.332.456.506a9.341,9.341,0,1,1-16.1,8.663,8.608,8.608,0,0,1-.279-1.271A9.339,9.339,0,0,1,1066,114.8C1066.189,114.966,1066.373,115.141,1066.552,115.325Z" transform="translate(-731.2 -84.144)" fill="#fef7d8"/><path d="M1066.552,115.325c.161.165.315.332.456.506a9.341,9.341,0,1,1-16.1,8.663,8.608,8.608,0,0,1-.279-1.271A9.339,9.339,0,0,1,1066,114.8C1066.189,114.966,1066.373,115.141,1066.552,115.325Z" transform="translate(-800.162 72.587)" fill="#fef7d8"/><path d="M1066.552,115.325c.161.165.315.332.456.506a9.341,9.341,0,1,1-16.1,8.663,8.608,8.608,0,0,1-.279-1.271A9.339,9.339,0,0,1,1066,114.8C1066.189,114.966,1066.373,115.141,1066.552,115.325Z" transform="translate(-924.293 -105.459)" fill="#fef7d8"/><path d="M1077.133,119.914c.161.165.314.332.456.506l-11.187,8.562,10.176-9.589C1076.769,119.556,1076.953,119.73,1077.133,119.914Z" transform="translate(-741.78 -88.733)" fill="#fef7d8"/><path d="M1081.68,138.039l-8.175,10.15a9.362,9.362,0,0,1-1.627-.254Z" transform="translate(-745.429 -101.157)" fill="#fef7d8"/><path d="M1057.807,123.526l-6.7,8.311a8.591,8.591,0,0,1-.279-1.271Z" transform="translate(-731.405 -91.487)" fill="#fef7d8"/><path d="M568.148,636.956s20.5.854,20.5,5.98-23.064,0-23.064,0Z" transform="translate(-408.065 -433.607)" fill="#ffd6d6"/><path d="M308.792,655.481l-38.441-2.563-1.708-20.5L260.1,650.356l-37.587-5.125c.854-32.461,14.522-64.068,15.376-68.339s2.9-21.92,2.9-21.92c3.733-7.919,23.3-8.662,38.629-7.944,6.356.29,11.994.837,15.47,1.23,2.3.256,3.656.444,3.656.444,6.125,6.313,10.072,14.915,12.5,24.525C319.786,607.849,308.792,655.481,308.792,655.481Z" transform="translate(-179.462 -373.542)" fill="#4d4d4d"/><circle cx="21.356" cy="21.356" r="21.356" transform="translate(65.262 41.043)" fill="#ffd6d6"/><path d="M276.332,229.879s-5.98,26.481-15.376,34.17,36.732,0,36.732,0-10.251-17.085-2.563-24.773S276.332,229.879,276.332,229.879Z" transform="translate(-204.236 -162.355)" fill="#ffd6d6"/><path d="M294.9,388.7l-14.172,1.572-39.645,4.408s-.188-.5-.521-1.418c-2.879-7.851-16.743-46.052-18.272-57.525-1.708-12.814,16.231-28.19,16.231-28.19s17.085-3.417,22.21-3.417,25.627,7.688,25.627,7.688L294,380.589l.658,5.954Z" transform="translate(-179.233 -211.828)" fill="#fff"/><path d="M396.2,483.184l-28.728-16.837s-.5-1.64-1.358-4.408c-.427-1.384-.948-3.058-1.538-4.955-3.314-10.644-8.876-28.207-13.335-41.038-6.834-19.648,26.482,35.024,26.482,35.024l1.666,1.29.658,5.954c2.3.256,3.656.444,3.656.444C389.826,464.972,393.773,473.574,396.2,483.184Z" transform="translate(-264.623 -283.5)" opacity="0.15"/><path d="M364.863,327.241s-8.542,11.105-1.708,30.753,16.231,50.4,16.231,50.4l49.546,29.044,6.834-8.542-46.129-35.878s-1.708-64.922-10.251-67.485A17.505,17.505,0,0,0,364.863,327.241Z" transform="translate(-271.412 -225.547)" fill="#fff"/><path d="M246.836,544.367s11.959,24.773,17.085,22.21-12.814-28.19-12.814-28.19Z" transform="translate(-195.669 -367.927)" fill="#ffd6d6"/><path d="M143.37,352.77,98.1,390.357s-17.085,11.959,14.522,20.5,34.17,13.668,34.17,13.668,3.417-11.105,7.688-9.4l-36.732-17.939,29.9-17.939Z" transform="translate(-93.485 -244.242)" fill="#fff"/><path d="M167.992,165.43a120.6,120.6,0,0,0,12.093-6.413c-.313-9.308.833-17.758,4.188-22.237,1.883-4.276,5.838-8.558,8.936-11.929,7.607-8.28,24.427-12.9,27.41-8.765,22.564.445,24.939,18.132,24.939,18.132-.117,7.4-7.806,7.632-14.541,7.362.6,5.05-1,10.3-5.659,12.625-8.9,4.45-11.571,10.236-7.121,14.241s12.461,14.686,1.78,17.356-12.016,8.011-8.9,10.236S204,192.034,204,192.034s-1.78,10.681-11.126,8.011a5.621,5.621,0,0,1-2.5-1.769c-2.524,2.773-4.776,4.413-6.473,4.422-9.72.052-8.554-10.714-8.554-10.714s-11.537,3.24-7.937,1.937,3.754-6.805-5.811-12.257S162.627,168.087,167.992,165.43Z" transform="translate(-136.303 -85.503)" fill="#adadac"/><path d="M545.146,264.392l-.155-.02.378,1.437a37.747,37.747,0,0,0,1.552,5.9l11.086,42.144a7.143,7.143,0,0,0,5.816,5.242l22.609,3.5a7.143,7.143,0,0,0,7.389-3.688l21.485-40.131a37.676,37.676,0,0,0,1.838-3.433l.729-1.363-.114-.015a37.986,37.986,0,1,0-72.614-9.568Z" transform="translate(-394.205 -156.56)" fill="#ffee6a"/><path d="M583.882,320.116a7.769,7.769,0,0,1-1.189-.092l-23.633-3.656a7.8,7.8,0,0,1-6.351-5.724l-11.588-44.051a39.71,39.71,0,0,1-1.628-6.191l-.293-1.927a40.047,40.047,0,0,1,45.842-44.665l-.1.66a39.395,39.395,0,0,0-45.021,44.347l.225,1.441a39.456,39.456,0,0,0,1.614,6.139l11.6,44.077a7.13,7.13,0,0,0,5.807,5.234l23.632,3.656a7.142,7.142,0,0,0,7.379-3.682l.589.315A7.815,7.815,0,0,1,583.882,320.116Z" transform="translate(-390.268 -151.333)" fill="#4d4d4d"/><rect width="41.812" height="0.863" transform="translate(185.23 156.674) rotate(-69.885)" fill="#4d4d4d"/><rect width="0.863" height="41.812" transform="translate(175.27 113.816) rotate(-2.516)" fill="#4d4d4d"/><path d="M605.839,580.43l-30.282-4.685a.863.863,0,0,1,.264-1.706l30.282,4.685a.863.863,0,1,1-.264,1.706Z" transform="translate(-414.223 -391.676)" fill="#3f3d56"/><path d="M608.166,561.157l-30.282-4.685a.863.863,0,1,1,.264-1.706l30.282,4.685a.863.863,0,1,1-.264,1.706Z" transform="translate(-415.773 -378.834)" fill="#4d4d4d"/><path d="M610.493,541.884,580.211,537.2a.863.863,0,1,1,.264-1.706l30.282,4.685a.863.863,0,1,1-.264,1.706Z" transform="translate(-417.324 -365.992)" fill="#4d4d4d"/><path d="M600.041,586.136c6.007.929,11.394-1.665,12.033-5.795l-21.752-3.365C589.683,581.106,594.035,585.207,600.041,586.136Z" transform="translate(-424.507 -393.64)" fill="#4d4d4d"/><path d="M627.111,342.928a5.317,5.317,0,0,1-2.947-1.905c-.192-.224-.379-.457-.567-.691a6.742,6.742,0,0,0-2.224-2.07c-1.981-.924-4.315.367-6.336,1.752l-.488-.712c2.222-1.523,4.813-2.93,7.189-1.822a7.48,7.48,0,0,1,2.532,2.312c.182.226.363.452.549.67.609.712,1.825,1.865,3.127,1.6a4.2,4.2,0,0,0,1.5-.794,8.027,8.027,0,0,1,1.062-.67,4.227,4.227,0,0,1,4.64.656,8.346,8.346,0,0,1,.63.666,2.148,2.148,0,0,0,3.473.408,4.464,4.464,0,0,1,2.612-.782l.093.013c1.7.263,2.484,2.143,2.927,3.547l-.823.26c-.6-1.907-1.337-2.856-2.3-2.962a3.794,3.794,0,0,0-2.1.684,2.945,2.945,0,0,1-4.532-.6,7.59,7.59,0,0,0-.564-.6,3.391,3.391,0,0,0-3.674-.519,7.267,7.267,0,0,0-.946.6,4.906,4.906,0,0,1-1.825.935A2.84,2.84,0,0,1,627.111,342.928Z" transform="translate(-440.692 -233.789)" fill="#4d4d4d"/><g transform="translate(196.281 20.366)"><path d="M-748.152,58.993l-3.118,3.331a5.332,5.332,0,0,0,.25,7.536L-729.614,89.9a5.331,5.331,0,0,1,.25,7.536L-749.4,118.84a5.333,5.333,0,0,0,.249,7.536l3.331,3.118a5.333,5.333,0,0,0,7.536-.25l30.441-32.525a5.331,5.331,0,0,0-.249-7.536l-32.524-30.441A5.333,5.333,0,0,0-748.152,58.993Z" transform="translate(752.71 -57.305)" fill="#febe1b"/><path d="M-693.76,166.528l3.122-3.329a5.33,5.33,0,0,0-.241-7.536l-21.384-20.06a5.331,5.331,0,0,1-.242-7.536l20.06-21.384a5.332,5.332,0,0,0-.241-7.537l-3.328-3.122a5.333,5.333,0,0,0-7.537.242l-30.476,32.49a5.33,5.33,0,0,0,.241,7.536l32.49,30.477A5.33,5.33,0,0,0-693.76,166.528Z" transform="translate(757.086 -47.842)" fill="#ee255c"/></g></g></svg>